<svg xmlns="http://www.w3.org/2000/svg" aria-hidden="true" style="position:absolute;width:0;height:0;overflow:hidden"><defs><symbol id="icon-arrow" viewBox="0 0 32 32"><path fill="#f31b26" d="M28 5.333v17.333a1.334 1.334 0 0 1-2.667 0V8.551L6.277 27.609a1.335 1.335 0 0 1-1.886 0 1.335 1.335 0 0 1 0-1.886L23.449 6.667H9.334a1.335 1.335 0 0 1-.943-2.277c.251-.25.589-.39.943-.39h17.333a1.333 1.333 0 0 1 1.334 1.333z" style="fill:var(--color1, #f31b26)"/></symbol><symbol id="icon-arrow-down" viewBox="0 0 32 32"><path  d="M26.667 28H9.334a1.334 1.334 0 0 1 0-2.667h14.115L4.391 6.277a1.335 1.335 0 0 1 0-1.886 1.335 1.335 0 0 1 1.886 0l19.056 19.058V9.334a1.333 1.333 0 1 1 2.667 0v17.333a1.334 1.334 0 0 1-1.334 1.334z"/></symbol><symbol id="icon-circles" viewBox="0 0 96 32"><path stroke-width="3.2" d="M14.4 16c0 3.535-2.865 6.4-6.4 6.4S1.6 19.535 1.6 16 4.465 9.6 8 9.6s6.4 2.865 6.4 6.4m48 0c0 7.953-6.447 14.4-14.4 14.4S33.6 23.953 33.6 16 40.047 1.6 48 1.6 62.4 8.047 62.4 16m32 0c0 3.535-2.865 6.4-6.4 6.4s-6.4-2.865-6.4-6.4 2.865-6.4 6.4-6.4 6.4 2.865 6.4 6.4"/></symbol><symbol id="icon-close" viewBox="0 0 32 32"><path fill="#eaeaea" d="m8.532 25.333-1.867-1.867 7.467-7.467-7.467-7.467 1.867-1.867 7.467 7.467 7.467-7.467 1.867 1.867-7.467 7.467 7.467 7.467-1.867 1.867-7.467-7.467z" style="fill:var(--color2, #eaeaea)"/></symbol><symbol id="icon-debian" viewBox="0 0 32 32"><path fill="#ff3700" d="m24.667 14.093-.267.493c.347-1.04.147-2.173.2-3.16l-.093-.027c-.093-2.467-2.227-5.093-4.12-5.973-1.64-.76-4.16-.893-5.32-.32.16-.147.8-.2.6-.307-1.827.173-1.413.627-2.813.987-.387.373 1.147-.293.307.213-.747.173-1.093-.16-2.2.987.093.16.707-.467.2.16-1.053-.12-3.307 2.4-3.787 3.227l.253.053c-.413 1.027-.96 1.68-1.027 2.293-.107 1.52-.6 4.28.107 5.133l-.08.707.307.6-.16.013c.773 2.44.827.053 1.853 2.587-.147-.053-.307-.107-.52-.427-.027.253.32.92.72 1.44l-.16.187c.213.413.427.507.573.653-.84-.467.76 1.507.933 1.76l.133-.227c-.027.32.227.747.707 1.347l.4-.013c.173.32.773.907 1.133.933l-.24.32c.92.267.44.387 1.573.787l-.227-.4c.573.493.747.933 1.56 1.307 1.133.4 1.28.24 2.427.573-.973 0-2.12 0-2.893-.293-5.28-1.427-10.08-7.627-9.76-14-.08-1.293.133-2.907-.08-3.227.293-.987.64-2.187 1.347-3.613-.053-.093.12.28.48-.32.213-.48.387-1 .667-1.467l.133-.04C7.68 6.226 9.44 4.972 10 4.346v.24c1.147-1.08 3.2-1.8 4.347-2.307-.307.333.68-.04 1.387-.08l-.653.373c.84-.213.8.093 1.667-.04-.307.04-.667.133-.613.213.96.107 1.12-.293 2.013 0l-.067-.267c1.253.453 1.507.373 2.853 1.093.48.013.533-.293 1.24 0 .133.213-.027.253.853.787.093-.04-.173-.293-.36-.493 1.733.947 3.667 2.96 4.24 5.12-.547-.987-.053.52-.24.44.24.653.44 1.333.573 2.04-.16-.573-.52-1.973-1.147-2.867-.04.573-.8-.4-.387.88.293.453.067-.467.453.333 0 .387.147.773.24 1.267-.133-.027-.293-.547-.4-.413.133.667.36.96.44 1.013-.04.107-.16-.107-.16.32.053.987.28.573.387.613-.12.493-.547 1.053-.333 1.893l-.267-.747c-.067.707.147.84-.173 1.707.24-.8.213-1.467-.013-1.133.12 1.093-.867 1.933-.773 2.64l-.28-.387c-.76 1.107-.013.6-.533 1.413.187-.307-.093-.107.147-.48-.16.013-.733.707-1.253 1.107-2.053 1.64-4.52 1.867-6.867.973h-.013c.013-.053 0-.12-.16-.227-2.013-1.533-3.2-2.84-2.813-5.88.333-.227.413-1.493 1.12-1.933.427-.947 1.707-1.813 3.08-1.84 1.4-.08 2.587.747 3.187 1.52-1.093-1-2.853-1.307-4.373-.573-1.533.707-2.453 2.4-2.347 4.093.08-.093.133-.027.16-.24-.04 3.293 3.547 5.707 6.133 4.493l.04.067c1.04-.293.907-.52 1.587-1-.053.12-.453.4-.213.4.333-.08 1.373-1.053 1.893-1.507.227-.507-.133-.307.2-.92l.4-.2c.227-.64.467-1 .467-1.76z" style="fill:var(--color3, #ff3700)"/></symbol><symbol id="icon-graphql" viewBox="0 0 32 32"><path fill="#ff3700" d="m16 7.16-.587-.08L8 19.867c.32.28.533.64.627 1.04h14.747c.093-.4.307-.76.627-1.04L16.588 7.08l-.587.08zM8.8 22.04l5.707 3.373c.387-.36.92-.573 1.493-.573s1.107.213 1.493.573L23.2 22.04zm7.2 7.293a2.24 2.24 0 0 1-2.24-2.24l.12-.747-5.733-3.4a2.21 2.21 0 0 1-1.693.773 2.24 2.24 0 0 1-2.24-2.24 2.25 2.25 0 0 1 1.68-2.187v-6.813a2.26 2.26 0 0 1-1.96-2.24 2.24 2.24 0 0 1 2.24-2.24c.733 0 1.373.347 1.787.88l5.88-3.373-.08-.6c0-1.24 1-2.24 2.24-2.24s2.24 1 2.24 2.24l-.08.6 5.88 3.373a2.25 2.25 0 0 1 3.371-.224c.42.42.656.99.656 1.584a2.26 2.26 0 0 1-1.96 2.24v6.813a2.25 2.25 0 0 1 1.68 2.187 2.24 2.24 0 0 1-3.933 1.467l-5.733 3.4.12.747a2.24 2.24 0 0 1-2.24 2.24zM14.4 6.48l-6 3.44.027.32a2.26 2.26 0 0 1-1.413 2.093l.04 7zm3.2 0 7.347 12.853.04-7a2.26 2.26 0 0 1-1.413-2.093l.027-.32-6-3.44z" style="fill:var(--color3, #ff3700)"/></symbol><symbol id="icon-jquery" viewBox="0 0 32 32"><path fill="#ff3700" d="M30.507 13.88c-2.813 2.36-7.027 1.987-9.387-.827-2.373-2.827-2-7.053.813-9.387l.68-.507c-2.253 2.427-2.4 6.213-.213 8.84 2.173 2.587 5.933 3.093 8.72 1.293l-.613.587zm-2.374 5.453c-4.227 3.56-10.533 3.013-14.08-1.227-3.56-4.227-3-10.533 1.227-14.107l1.227-.853c-3.227 3.64-3.387 9.2-.16 13.04 3.227 3.813 8.72 4.653 12.867 2.107l-1.08 1.04zm-1.506 6.507c-5.92 4.973-14.76 4.2-19.733-1.733-4.96-5.92-4.187-14.773 1.733-19.72l1.48-1.053c-4.68 5.067-4.973 12.973-.4 18.427 4.573 5.44 12.413 6.533 18.24 2.813z" style="fill:var(--color3, #ff3700)"/></symbol><symbol id="icon-logo" viewBox="0 0 51 32"><path fill="#eaeaea" d="m30.273 17.93-6.368-6.352c-.225-.224-.349-.522-.349-.839s.124-.615.349-.839L33.83 0l.688.686-9.925 9.9c-.055.055-.063.119-.063.153s.008.098.063.153l6.368 6.352zM15.087 32c-.305 0-.609-.116-.841-.347L.348 17.79a1.184 1.184 0 0 1 0-1.677l9.703-9.679.688.686-9.703 9.679a.216.216 0 0 0 0 .305l13.898 13.863a.217.217 0 0 0 .306 0l9.693-9.668.688.686-9.693 9.668a1.18 1.18 0 0 1-.841.347M12.079 1.501l-.688.686 15.145 15.107.688-.686z" style="fill:var(--color2, #eaeaea)"/><path fill="#eaeaea" d="M15.087 28.911a1.18 1.18 0 0 1-.841-.348L3.446 17.79c-.225-.224-.349-.522-.349-.839s.124-.615.349-.839l8.145-8.125.688.686-8.145 8.125a.216.216 0 0 0 0 .306l10.8 10.773a.217.217 0 0 0 .306 0l8.2-8.179.688.686-8.2 8.179a1.18 1.18 0 0 1-.841.348" style="fill:var(--color2, #eaeaea)"/><path fill="#eaeaea" d="M15.087 25.821c-.318 0-.616-.124-.841-.348L6.543 17.79c-.225-.224-.348-.522-.348-.839s.124-.615.348-.839l6.62-6.602.688.686-6.62 6.603c-.055.055-.063.119-.063.153s.008.098.063.153l7.703 7.683a.217.217 0 0 0 .306 0l6.645-6.628.688.686-6.645 6.629a1.18 1.18 0 0 1-.841.348z" style="fill:var(--color2, #eaeaea)"/><path fill="#eaeaea" d="M15.087 22.73c-.305 0-.609-.116-.841-.347L9.641 17.79c-.225-.224-.349-.522-.349-.839s.124-.615.349-.839l4.605-4.593a1.194 1.194 0 0 1 1.682 0l4.605 4.594c.225.224.349.521.349.839s-.124.615-.349.839l-4.605 4.593a1.2 1.2 0 0 1-.841.347zm0-10.588a.22.22 0 0 0-.153.063l-4.605 4.593c-.055.055-.063.119-.063.153s.008.098.063.153l4.605 4.593a.216.216 0 0 0 .306 0l4.605-4.593c.055-.055.064-.119.064-.153s-.008-.098-.064-.152l-4.605-4.594a.22.22 0 0 0-.153-.063" style="fill:var(--color2, #eaeaea)"/><path fill="#eaeaea" d="M35.579 32c-.305 0-.609-.116-.841-.347L14.104 11.072l.688-.686 20.634 20.581a.217.217 0 0 0 .306 0L49.63 17.104c.055-.055.063-.119.063-.153s-.008-.098-.063-.152L35.732 2.936a.216.216 0 0 0-.306 0l-9.742 9.718-.688-.686 9.743-9.718a1.193 1.193 0 0 1 1.682 0L50.32 16.113c.225.224.348.522.348.839s-.124.615-.348.839L36.421 31.654a1.2 1.2 0 0 1-.841.346z" style="fill:var(--color2, #eaeaea)"/><path fill="#eaeaea" d="M35.579 28.91a1.2 1.2 0 0 1-.841-.347L9.852 3.74l.688-.686 24.886 24.823a.22.22 0 0 0 .306 0l10.801-10.773c.055-.055.063-.119.063-.153s-.008-.098-.063-.152L35.732 6.025a.217.217 0 0 0-.306 0l-8.198 8.177-.688-.686 8.198-8.177a1.193 1.193 0 0 1 1.682 0l10.801 10.773c.225.224.349.521.349.839s-.124.615-.349.839L36.42 28.563a1.2 1.2 0 0 1-.841.347" style="fill:var(--color2, #eaeaea)"/><path fill="#eaeaea" d="M35.578 25.821a1.18 1.18 0 0 1-.841-.348l-8.2-8.179.688-.686 8.2 8.179a.216.216 0 0 0 .306 0l7.703-7.683c.055-.055.064-.119.064-.153s-.008-.098-.064-.152l-7.703-7.684a.216.216 0 0 0-.306 0l-6.649 6.633-.688-.686 6.649-6.633c.225-.224.523-.348.841-.348s.616.123.841.348l7.703 7.683c.225.224.349.522.349.839s-.124.615-.349.839l-7.703 7.683a1.18 1.18 0 0 1-.841.348" style="fill:var(--color2, #eaeaea)"/><path fill="#eaeaea" d="M35.579 22.73c-.305 0-.609-.116-.841-.347l-4.605-4.593c-.225-.224-.349-.522-.349-.839s.124-.615.349-.839l4.605-4.593a1.194 1.194 0 0 1 1.682 0l4.605 4.594c.225.224.349.521.349.839s-.124.615-.349.839l-4.605 4.593a1.2 1.2 0 0 1-.841.347zm0-10.588a.22.22 0 0 0-.153.063l-4.605 4.593a.216.216 0 0 0 0 .306l4.605 4.593a.216.216 0 0 0 .306 0l4.605-4.593c.055-.055.064-.119.064-.153s-.008-.098-.064-.152l-4.605-4.594a.22.22 0 0 0-.153-.063" style="fill:var(--color2, #eaeaea)"/></symbol><symbol id="icon-menu" viewBox="0 0 32 32"><path fill="#eaeaea" d="M4 24v-2.667h24V24zm0-6.667v-2.667h24v2.667zm0-6.666V8h24v2.667z" style="fill:var(--color2, #eaeaea)"/></symbol><symbol id="icon-meteor" viewBox="0 0 32 32"><path fill="#ff3700" d="m3.733 4 22.493 21.093s.44.6-.12 1.187c-.547.587-1.267.08-1.267.08L3.732 4zm6.68 2.12L27.88 22.187s.427.587-.12 1.147c-.56.627-1.28.12-1.28.12L10.413 6.121zM5.72 10.667l17.467 16.04s.427.587-.12 1.173c-.56.6-1.28.12-1.28.12zm10.347-2.72 12.2 11.213s.293.413-.093.84c-.373.4-.88.04-.88.04zm-8.8 7.933 12.2 11.227s.293.413-.08.827c-.387.413-.893.067-.893.067zm14.573-5.32 5.56 5.093s.147.187-.067.387c-.16.187-.413.027-.413.027zM10.08 21.467l5.573 5.08s.147.2-.053.387c-.187.2-.44.027-.44.027z" style="fill:var(--color3, #ff3700)"/></symbol></defs></svg>